<?xml version="1.0" encoding="iso-8859-1"?>
<!-- Uploaded to: SVG Repo, www.svgrepo.com, Generator: SVG Repo Mixer Tools -->
<svg fill="#000000" height="800px" width="800px" version="1.1" id="Layer_1" xmlns="http://www.w3.org/2000/svg" xmlns:xlink="http://www.w3.org/1999/xlink" 
	 viewBox="0 0 511.061 511.061" xml:space="preserve">
<g>
	<g>
		<g>
			<path d="M407.018,222.702v-36.983c0-18.227-14.831-33.058-33.058-33.058h-20.045c-0.171-0.811-0.085-1.528,0-1.929
				c0.171-0.751,0.802-2.594,3.61-3.43c9.617-2.859,15.778-11.52,15.343-21.53c-0.444-10.027-7.347-18.108-17.732-20.224
				c-2.304-0.478-3.089-2.261-3.328-3.004c-0.23-0.742-0.606-2.662,1.399-4.779c6.912-7.279,7.927-17.86,2.534-26.325
				c-5.385-8.457-15.403-11.998-25.472-8.644c-2.236,0.717-3.797-0.418-4.378-0.939c-0.572-0.521-1.86-2.005-1.306-4.292
				c0.008-0.026,0.196-0.862,0.205-0.896c1.673-7.39-0.734-14.925-6.409-20.139c-5.845-5.393-14.165-7.253-21.709-4.898
				c-0.546,0.179-1.075,0.41-1.579,0.683l-77.406,43.068l-98.423-70.11c-9.173-5.359-19.857-6.682-30.063-3.746
				c-10.214,2.953-18.543,9.771-23.45,19.191c-4.907,9.438-5.717,20.164-2.278,30.225c3.447,10.061,10.658,18.039,20.233,22.443
				l108.006,51.174l9.173,88.704c0.068,0.572,0.179,1.135,0.35,1.69c1.792,5.675,5.828,10.325,11.034,13.005
				c-22.511,19.072-35.652,46.925-35.652,76.86v112.375c0,51.755,42.112,93.867,93.867,93.867h85.333
				c51.755,0,93.867-42.112,93.867-93.867V304.819C449.684,271.931,433.744,241.672,407.018,222.702z M208.455,120.575
				l15.061-28.911l78.933-43.904c1.775-0.307,3.422,0.435,4.386,1.323c0.811,0.759,1.715,2.039,1.152,4.523
				c-1.843,7.697,0.538,15.488,6.383,20.838c5.828,5.342,13.798,7.04,21.854,4.352c2.953-0.981,4.565,0.939,5.129,1.818
				c0.546,0.87,1.613,3.149-0.922,5.82c-5.444,5.751-7.279,13.688-4.898,21.248c2.381,7.552,8.431,13.005,16.751,14.694
				c3.046,0.623,3.482,3.098,3.533,4.147c0.043,1.033-0.179,3.533-3.721,4.582c-7.578,2.253-13.133,8.218-14.848,15.94
				c-1.51,6.835,0.461,13.602,5.299,19.004c0.341,0.495,0.674,0.99,1.126,1.408c0.256,0.265,0.503,0.495,0.683,0.657
				c0.017,0.009,0.026,0.034,0.043,0.043c1.28,1.143,1.562,2.347,1.51,3.379c-0.051,0.828-0.307,1.553-0.521,1.963
				c-0.469,0.913-1.843,2.97-5.504,2.125c-7.646-1.809-15.471,0.546-20.83,6.374c-5.35,5.828-7.057,13.807-4.361,21.879
				c0.981,2.953-0.947,4.557-1.818,5.12c-0.887,0.555-3.166,1.596-5.828-0.93c-5.76-5.453-13.705-7.296-21.24-4.898
				c-7.552,2.372-13.005,8.422-14.703,16.759c-0.623,3.038-3.098,3.482-4.13,3.524c-1.024,0.094-3.541-0.188-4.599-3.721
				c-2.261-7.586-8.218-13.141-15.949-14.848c-1.604-0.35-3.191-0.521-4.762-0.521c-0.188,0-0.358,0.051-0.546,0.051
				c-0.486,0.017-0.964,0.111-1.442,0.154c-1.323,0.128-2.611,0.358-3.874,0.725c-0.41,0.128-0.819,0.256-1.229,0.41
				c-1.493,0.529-2.91,1.22-4.258,2.091c-0.137,0.085-0.282,0.154-0.418,0.247c-1.51,1.016-2.935,2.167-4.19,3.584l-0.265,0.299
				l-0.008,0.009c-0.068,0.077-0.137,0.137-0.188,0.196c-0.026,0.026-0.085,0.068-0.12,0.102c-0.102,0.102-0.205,0.162-0.316,0.247
				c-0.179,0.128-0.401,0.265-0.751,0.444c-0.102,0.043-0.171,0.119-0.265,0.171c-0.87,0.333-1.749,0.324-2.449,0.171
				c-1.271-0.29-2.825-1.169-3.601-2.825L208.455,120.575z M432.618,417.194c0,42.351-34.449,76.8-76.8,76.8h-85.333
				c-42.351,0-76.8-34.449-76.8-76.8V304.819c0-23.031,9.344-44.604,25.6-60.254v85.547v3.166c0,41.566,33.818,75.383,75.383,75.383
				h3.166h30.635h3.166c41.566,0,75.383-33.818,75.383-75.383v-3.166v-85.547c16.256,15.65,25.6,37.222,25.6,60.254V417.194z"/>
			<path d="M279.659,183.152c1.655,2.372,4.309,3.644,6.997,3.644c1.69,0,3.396-0.503,4.89-1.545
				c3.857-2.697,4.796-8.013,2.099-11.878l-32.384-46.31h59.52c4.719,0,8.533-3.823,8.533-8.533c0-4.719-3.814-8.533-8.533-8.533
				h-75.895c-3.183,0-6.101,1.766-7.569,4.591c-1.476,2.816-1.246,6.221,0.572,8.832L279.659,183.152z"/>
		</g>
	</g>
</g>
</svg>